<svg xmlns="http://www.w3.org/2000/svg" viewBox="0 0 205.39 205.39"><defs><style>.cls-1{fill:#fff;stroke:#1d1d1b;stroke-linecap:round;stroke-miterlimit:10;stroke-width:2px;}</style></defs><g id="Calque_2" data-name="Calque 2"><g id="Calque_2-2" data-name="Calque 2"><path class="cls-1" d="M118.66,53.57c-1.66,5.09-3.33,10.19-5,15.28"/><path class="cls-1" d="M134.12,6,130,18.78"/><line class="cls-1" x1="81.27" y1="36.75" x2="71.27" y2="5.97"/><polyline class="cls-1" points="85.02 48.3 91.7 68.85 91.7 68.85"/><line class="cls-1" x1="42.92" y1="20.42" x2="50.77" y2="31.22"/><polyline class="cls-1" points="55.83 38.18 81.79 73.92 81.79 73.92"/><line class="cls-1" x1="199.41" y1="71.27" x2="191.24" y2="73.92"/><polyline class="cls-1" points="191.24 73.92 136.54 91.69 136.54 91.7"/><line class="cls-1" x1="199.41" y1="134.12" x2="175.46" y2="126.33"/><polyline class="cls-1" points="167.98 123.9 136.54 113.69 136.54 113.69"/><line class="cls-1" x1="20.42" y1="42.92" x2="54.59" y2="67.74"/><polyline class="cls-1" points="62.74 73.66 73.92 81.79 73.93 81.79"/><line class="cls-1" x1="159.01" y1="61.77" x2="184.97" y2="42.92"/><polyline class="cls-1" points="152.61 66.43 131.47 81.79 131.47 81.79"/><line class="cls-1" x1="149.05" y1="38.89" x2="162.47" y2="20.42"/><polyline class="cls-1" points="144.78 44.77 123.6 73.92 123.6 73.92"/><line class="cls-1" x1="5.98" y1="134.12" x2="28.2" y2="126.9"/><polyline class="cls-1" points="36.62 124.16 68.85 113.69 68.85 113.69"/><line class="cls-1" x1="139.14" y1="152.86" x2="162.47" y2="184.97"/><polyline class="cls-1" points="133.35 144.88 123.6 131.46 123.6 131.46"/><line class="cls-1" x1="122.92" y1="164.92" x2="134.12" y2="199.41"/><polyline class="cls-1" points="118.66 151.81 113.69 136.54 113.69 136.54"/><line class="cls-1" x1="71.27" y1="199.41" x2="75.52" y2="186.32"/><polyline class="cls-1" points="79.91 172.83 91.7 136.54 91.7 136.54"/><line class="cls-1" x1="158.22" y1="143.03" x2="184.97" y2="162.47"/><polyline class="cls-1" points="151.69 138.29 131.47 123.59 131.47 123.59"/><polygon class="cls-1" points="20.42 162.47 73.93 123.59 73.92 123.59 20.42 162.47"/><polyline class="cls-1" points="138.29 102.69 138.29 102.69 138.29 102.69 149.77 102.69"/><line class="cls-1" x1="156.01" y1="102.69" x2="204.39" y2="102.69"/><line class="cls-1" x1="42.92" y1="184.97" x2="67.79" y2="150.73"/><polyline class="cls-1" points="73.99 142.21 81.79 131.46 81.79 131.46"/><line class="cls-1" x1="5.98" y1="71.27" x2="16.89" y2="74.81"/><polyline class="cls-1" points="23.16 76.85 68.85 91.7 68.85 91.69"/><path class="cls-1" d="M102.7,183.85V138.29h0"/><line class="cls-1" x1="102.7" y1="194.94" x2="102.7" y2="204.39"/><polyline class="cls-1" points="34.94 102.69 67.1 102.69 67.1 102.69 67.1 102.69"/><line class="cls-1" x1="23.72" y1="102.69" x2="1" y2="102.69"/><line class="cls-1" x1="102.7" y1="1" x2="102.7" y2="17.95"/><path class="cls-1" d="M102.7,31.22V67.1h0"/></g></g></svg>