<svg xmlns="http://www.w3.org/2000/svg" viewBox="0 0 24.93 24"><defs><style>.cls-1{fill:#010101;}</style></defs><g id="Calque_2" data-name="Calque 2"><g id="Calque_2-2" data-name="Calque 2"><path class="cls-1" d="M8.51,12l1.6-.8a2.6,2.6,0,0,0,2.58,1.41L18.55,12l6.38-3.2L20.51,0,15.7,2.41l.58,1.16L9.9,4.83,4.5,10.05l.4.8A2.68,2.68,0,0,0,8.51,12Zm11.2-9.63L22.53,8l-1.61.8-2.81-5.6Zm-9,4.08,6.36-1.26,2.2,4.39L18,10.27l-5.53.6a.8.8,0,0,1-.79-.44,18.54,18.54,0,0,1,1.9-.8l2.23-.33-.26-1.77-2.23.32A4.55,4.55,0,0,0,12,8.28L7.7,10.43a.9.9,0,0,1-1-.08Z"/><path class="cls-1" d="M10.55,14.44v3.19h1.2v3.18h.79v-8A2,2,0,0,0,10.55,14.44Zm-2,1.2H7.77V12.85H7v2.79h-.8V12.85H5.38v2.79A1.59,1.59,0,0,0,7,17.23v3.58h.8V17.23a1.59,1.59,0,0,0,1.59-1.59V12.85h-.8Z"/><path class="cls-1" d="M14.65,13.34l-.31.18v8.69H3.58V13.53L2.7,13a1.79,1.79,0,0,1,.88-3.35h0L5.46,7.87H3.58a3.58,3.58,0,0,0-1.79,6.68v7.66A1.8,1.8,0,0,0,3.58,24H14.34a1.8,1.8,0,0,0,1.79-1.79V14.55A3.57,3.57,0,0,0,17.53,13Z"/></g></g></svg>